<?xml version="1.0" encoding="UTF-8"?> <svg xmlns="http://www.w3.org/2000/svg" id="Layer_1" data-name="Layer 1" viewBox="0 0 216 72"><defs><style>.cls-1{fill:#ffc907;}</style></defs><title>Artboard 1</title><polygon points="31.01 12.37 32.42 12.37 46.47 41.93 45.75 43.51 31.01 12.37"></polygon><polygon class="cls-1" points="1.89 12.37 10.55 12.37 28.44 50.26 24 59.55 1.89 12.37"></polygon><polygon points="12.49 12.37 13.9 12.37 30.18 46.6 29.45 48.17 12.49 12.37"></polygon><polygon class="cls-1" points="16.03 12.37 29.23 12.37 45.06 45.65 38.62 59.55 16.03 12.37"></polygon><polygon class="cls-1" points="44.25 12.37 60.33 12.37 47.6 39.52 39.38 23.02 44.25 12.37"></polygon><path d="M99.15,49.73H92.5L87,31.1h-.12L81.37,49.73H74.68L66.77,22.19H74l4.41,18.32h.12l4.95-18.32h7l5,18.32h.12l4.49-18.32h7Z"></path><path d="M128.86,49.73l-2.17-5.41H115.91l-2,5.41h-7.32l11.68-27.54h6.54l11.56,27.54Zm-7.48-20.19L117.84,39h7Z"></path><path d="M148.21,27.87V49.73h-6.72V27.87h-7.87V22.19h22.46v5.68Z"></path><path d="M177.92,49.24a15,15,0,0,1-6.26,1.23,16.27,16.27,0,0,1-6-1.06,14.11,14.11,0,0,1-4.74-3,13.7,13.7,0,0,1-3.15-4.61,15,15,0,0,1-1.14-5.91,15,15,0,0,1,1.16-6A13.35,13.35,0,0,1,161,25.36a14.21,14.21,0,0,1,4.8-2.9,17.19,17.19,0,0,1,5.94-1,16.85,16.85,0,0,1,5.8,1,11.27,11.27,0,0,1,4.63,3L177.64,30a5.62,5.62,0,0,0-2.48-1.91,8.37,8.37,0,0,0-3.14-.62,8,8,0,0,0-3.25.64,7.74,7.74,0,0,0-2.54,1.77,8,8,0,0,0-1.65,2.66,9.43,9.43,0,0,0-.59,3.37,9.67,9.67,0,0,0,.59,3.42A8,8,0,0,0,166.21,42a7.62,7.62,0,0,0,2.5,1.73,8.1,8.1,0,0,0,3.19.62,7.46,7.46,0,0,0,3.5-.78,6.72,6.72,0,0,0,2.4-2l4.68,4.35A13.26,13.26,0,0,1,177.92,49.24Z"></path><path d="M214.39,35.84a15.2,15.2,0,0,1-1.14,6,13.59,13.59,0,0,1-3.17,4.63,14.17,14.17,0,0,1-4.82,3,17.8,17.8,0,0,1-12.1,0,14.18,14.18,0,0,1-4.8-3,13.56,13.56,0,0,1-3.16-4.63,15,15,0,0,1-1.15-6,14.89,14.89,0,0,1,1.15-6,13,13,0,0,1,3.16-4.53,14.14,14.14,0,0,1,4.8-2.88,18.63,18.63,0,0,1,12.1,0,14.13,14.13,0,0,1,4.82,2.88,13,13,0,0,1,3.17,4.53A15.06,15.06,0,0,1,214.39,35.84Zm-7.2,0a9.38,9.38,0,0,0-.59-3.34A8.15,8.15,0,0,0,205,29.83a7.65,7.65,0,0,0-2.52-1.75,8.06,8.06,0,0,0-3.25-.64,7.79,7.79,0,0,0-5.74,2.39,7.55,7.55,0,0,0-1.64,2.67,9.6,9.6,0,0,0-.57,3.34,9.78,9.78,0,0,0,.59,3.44A8.29,8.29,0,0,0,193.48,42a7.47,7.47,0,0,0,2.5,1.77,8.45,8.45,0,0,0,6.45,0A7.76,7.76,0,0,0,205,42a8.32,8.32,0,0,0,1.65-2.71A9.78,9.78,0,0,0,207.19,35.84Z"></path></svg> 