<svg width="16" height="16" viewBox="0 0 16 16" fill="none" xmlns="http://www.w3.org/2000/svg">
<path d="M6 7.33335V6.66669C6 5.56002 6.33333 4.66669 8 4.66669C9.66667 4.66669 10 5.56002 10 6.66669V7.33335" stroke="#888888" stroke-linecap="round" stroke-linejoin="round"/>
<path d="M7.99999 9.73336C8.2209 9.73336 8.39997 9.55427 8.39997 9.33335C8.39997 9.11244 8.2209 8.93335 7.99999 8.93335C7.77908 8.93335 7.60001 9.11244 7.60001 9.33335C7.60001 9.55427 7.77908 9.73336 7.99999 9.73336Z" stroke="#888888" stroke-linecap="round" stroke-linejoin="round"/>
<path d="M9.66666 11.3333H6.33332C4.99999 11.3333 4.66666 11 4.66666 9.66665V8.99998C4.66666 7.66665 4.99999 7.33331 6.33332 7.33331H9.66666C11 7.33331 11.3333 7.66665 11.3333 8.99998V9.66665C11.3333 11 11 11.3333 9.66666 11.3333Z" stroke="#888888" stroke-linecap="round" stroke-linejoin="round"/>
<path d="M8.00001 14.6666C11.6819 14.6666 14.6667 11.6819 14.6667 7.99998C14.6667 4.31808 11.6819 1.33331 8.00001 1.33331C4.31811 1.33331 1.33334 4.31808 1.33334 7.99998C1.33334 11.6819 4.31811 14.6666 8.00001 14.6666Z" stroke="#888888" stroke-linecap="round" stroke-linejoin="round"/>
</svg>
