<svg width="16" height="16" viewBox="0 0 16 16" fill="none" xmlns="http://www.w3.org/2000/svg">
<path d="M6 7.33335V6.66669C6 5.56002 6.33333 4.66669 8 4.66669C9.66667 4.66669 10 5.56002 10 6.66669V7.33335" stroke="#737791" stroke-linecap="round" stroke-linejoin="round"/>
<path d="M8.00008 9.73336C8.221 9.73336 8.40006 9.55427 8.40006 9.33335C8.40006 9.11244 8.221 8.93335 8.00008 8.93335C7.77917 8.93335 7.6001 9.11244 7.6001 9.33335C7.6001 9.55427 7.77917 9.73336 8.00008 9.73336Z" stroke="#737791" stroke-linecap="round" stroke-linejoin="round"/>
<path d="M9.66675 11.3333H6.33341C5.00008 11.3333 4.66675 11 4.66675 9.66665V8.99998C4.66675 7.66665 5.00008 7.33331 6.33341 7.33331H9.66675C11.0001 7.33331 11.3334 7.66665 11.3334 8.99998V9.66665C11.3334 11 11.0001 11.3333 9.66675 11.3333Z" stroke="#737791" stroke-linecap="round" stroke-linejoin="round"/>
<path d="M7.99992 14.6666C11.6818 14.6666 14.6666 11.6819 14.6666 7.99998C14.6666 4.31808 11.6818 1.33331 7.99992 1.33331C4.31802 1.33331 1.33325 4.31808 1.33325 7.99998C1.33325 11.6819 4.31802 14.6666 7.99992 14.6666Z" stroke="#737791" stroke-linecap="round" stroke-linejoin="round"/>
</svg>
